<?xml version="1.0" encoding="UTF-8" standalone="no"?>
<!DOCTYPE svg PUBLIC "-//W3C//DTD SVG 20010904//EN"
              "http://www.w3.org/TR/2001/REC-SVG-20010904/DTD/svg10.dtd">

<svg xmlns="http://www.w3.org/2000/svg"
     viewBox="0 0 1200 1200">
  <path id="Selection"
        fill="#8e8e90" stroke="#8e8e90" stroke-width="1"
        d="M 199.00,408.00
           C 199.00,408.00 124.00,408.00 124.00,408.00
             110.03,408.02 98.75,415.04 94.79,429.00
             93.90,432.13 94.00,434.80 94.00,438.00
             94.00,438.00 94.00,494.00 94.00,494.00
             94.00,494.00 94.00,778.00 94.00,778.00
             94.01,782.34 93.87,784.83 95.47,789.00
             99.02,798.28 106.98,805.92 117.00,807.92
             117.00,807.92 133.00,807.92 133.00,807.92
             133.00,807.92 156.00,807.92 156.00,807.92
             156.00,807.92 363.00,807.92 363.00,807.92
             363.00,807.92 358.28,855.00 358.28,855.00
             358.28,855.00 356.26,872.85 356.26,872.85
             354.58,876.58 350.41,875.99 347.00,876.00
             341.71,876.01 326.84,874.37 324.02,879.15
             322.59,881.56 323.00,888.02 323.00,891.00
             323.00,891.00 458.00,891.00 458.00,891.00
             458.00,887.59 458.61,880.94 456.40,878.31
             454.47,876.03 451.73,876.05 449.00,876.00
             449.00,876.00 425.00,876.00 425.00,876.00
             425.00,876.00 420.28,829.00 420.28,829.00
             420.28,829.00 418.00,808.00 418.00,808.00
             418.00,808.00 548.00,808.00 548.00,808.00
             548.00,808.00 548.00,856.00 548.00,856.00
             548.09,862.55 549.20,865.57 555.00,869.00
             552.05,869.84 551.06,869.95 548.00,870.00
             548.00,870.00 542.00,870.00 542.00,870.00
             538.19,870.01 534.43,869.78 531.11,872.01
             525.89,875.50 525.41,885.31 530.23,889.35
             533.64,892.21 537.84,891.99 542.00,892.00
             542.00,892.00 1053.00,892.00 1053.00,892.00
             1056.47,891.99 1059.92,892.27 1062.96,890.26
             1069.62,885.87 1069.62,876.13 1062.96,871.74
             1058.77,868.98 1044.53,870.00 1039.00,870.00
             1039.00,870.00 1045.30,862.00 1045.30,862.00
             1045.30,862.00 1046.00,849.00 1046.00,849.00
             1046.00,849.00 1046.00,823.00 1046.00,823.00
             1046.00,823.00 1046.00,696.00 1046.00,696.00
             1046.00,696.00 1116.00,696.00 1116.00,696.00
             1120.52,695.99 1125.03,696.28 1127.69,691.81
             1129.65,688.51 1129.00,679.13 1128.93,675.00
             1128.93,675.00 1128.93,637.00 1128.93,637.00
             1128.93,637.00 1128.93,441.00 1128.93,441.00
             1128.93,441.00 1128.93,435.01 1128.93,435.01
             1127.25,428.07 1121.76,428.01 1116.00,428.00
             1116.00,428.00 1055.00,428.00 1055.00,428.00
             1055.00,428.00 810.00,428.00 810.00,428.00
             806.26,428.01 802.45,427.69 799.57,430.57
             797.12,433.01 797.06,435.78 797.00,439.00
             797.00,439.00 797.00,462.00 797.00,462.00
             797.00,462.00 797.00,571.00 797.00,571.00
             797.00,571.00 686.00,571.00 686.00,571.00
             686.00,571.00 686.00,438.00 686.00,438.00
             685.98,424.03 678.96,412.75 665.00,408.79
             661.87,407.90 659.20,408.00 656.00,408.00
             656.00,408.00 531.00,408.00 531.00,408.00
             531.00,408.00 531.00,318.00 531.00,318.00
             530.98,307.51 528.49,305.02 518.00,305.00
             518.00,305.00 457.00,305.00 457.00,305.00
             457.00,305.00 212.00,305.00 212.00,305.00
             209.54,305.00 206.36,304.85 204.09,305.85
             196.80,309.09 199.00,323.24 199.00,330.00
             199.00,330.00 199.00,408.00 199.00,408.00 Z
           M 529.00,337.00
           C 529.00,337.00 201.00,337.00 201.00,337.00
             201.00,337.00 201.00,320.00 201.00,320.00
             201.08,308.00 207.78,307.02 218.00,307.00
             218.00,307.00 271.00,307.00 271.00,307.00
             271.00,307.00 512.00,307.00 512.00,307.00
             517.18,307.01 523.71,306.96 527.26,311.48
             530.11,315.10 529.00,331.72 529.00,337.00 Z
           M 212.60,319.03
           C 208.88,324.34 214.35,328.28 217.40,325.38
             219.89,323.02 219.25,316.45 212.60,319.03 Z
           M 229.60,319.04
           C 226.25,323.78 230.38,327.65 233.57,325.77
             236.87,323.83 236.04,316.89 229.60,319.04 Z
           M 246.43,319.04
           C 242.18,323.86 246.66,327.54 249.70,326.34
             252.64,325.19 253.49,316.79 246.43,319.04 Z
           M 529.00,339.00
           C 529.00,339.00 529.00,557.00 529.00,557.00
             528.98,567.92 526.06,570.94 515.00,571.00
             515.00,571.00 456.00,571.00 456.00,571.00
             456.00,571.00 216.00,571.00 216.00,571.00
             211.12,570.99 206.13,571.21 202.89,566.79
             200.29,563.24 201.00,556.35 201.00,552.00
             201.00,552.00 201.00,517.00 201.00,517.00
             201.00,517.00 201.00,339.00 201.00,339.00
             201.00,339.00 529.00,339.00 529.00,339.00 Z
           M 215.00,353.00
           C 215.00,353.00 215.00,358.00 215.00,358.00
             215.00,358.00 232.00,358.00 232.00,358.00
             232.00,358.00 232.00,353.00 232.00,353.00
             232.00,353.00 215.00,353.00 215.00,353.00 Z
           M 282.00,358.00
           C 281.04,352.55 279.05,353.03 274.00,353.00
             274.00,353.00 249.00,353.00 249.00,353.00
             247.52,353.00 238.77,352.67 241.17,356.46
             242.37,358.35 247.01,358.00 249.00,358.00
             249.00,358.00 266.00,358.00 266.00,358.00
             266.00,358.00 282.00,358.00 282.00,358.00 Z
           M 291.66,354.00
           C 289.04,358.68 296.21,357.99 299.00,358.00
             299.00,358.00 317.00,358.00 317.00,358.00
             318.52,357.97 324.88,357.78 322.83,354.54
             321.80,352.92 318.67,353.04 317.00,353.00
             311.56,352.90 295.87,352.20 291.66,354.00 Z
           M 348.00,357.93
           C 348.00,357.93 348.00,353.00 348.00,353.00
             345.09,353.00 333.65,352.20 332.17,354.54
             330.86,356.60 333.55,357.60 335.06,357.93
             335.06,357.93 348.00,357.93 348.00,357.93 Z
           M 232.00,375.00
           C 231.85,373.23 231.96,371.26 230.40,370.02
             228.56,368.57 218.43,368.53 216.62,370.02
             212.12,373.69 219.87,374.96 222.00,375.00
             222.00,375.00 232.00,375.00 232.00,375.00 Z
           M 308.62,370.02
           C 305.15,375.48 312.69,374.99 316.00,375.00
             316.00,375.00 333.00,375.00 333.00,375.00
             341.64,374.84 339.82,370.65 337.68,369.60
             336.33,368.93 333.53,369.01 332.00,369.00
             326.59,368.96 312.94,368.17 308.62,370.02 Z
           M 240.00,370.00
           C 241.03,375.87 243.74,374.99 249.00,375.00
             249.00,375.00 290.00,375.00 290.00,375.00
             291.99,375.00 296.63,375.35 297.83,373.46
             299.88,370.22 293.52,370.03 292.00,370.00
             292.00,370.00 277.00,370.00 277.00,370.00
             277.00,370.00 262.00,370.00 262.00,370.00
             262.00,370.00 240.00,370.00 240.00,370.00 Z
           M 349.66,371.00
           C 346.34,376.93 362.85,375.00 366.00,375.00
             366.00,375.00 423.00,375.00 423.00,375.00
             424.99,375.00 429.63,375.35 430.83,373.46
             432.14,371.40 429.45,370.40 427.94,370.05
             427.94,370.05 413.00,370.05 413.00,370.05
             413.00,370.05 370.00,370.05 370.00,370.05
             364.81,370.00 354.01,369.14 349.66,371.00 Z
           M 232.00,386.00
           C 232.00,386.00 222.00,386.00 222.00,386.00
             219.87,386.04 212.12,387.31 216.62,390.98
             218.43,392.47 228.56,392.43 230.40,390.98
             231.96,389.74 231.85,387.77 232.00,386.00 Z
           M 241.62,387.02
           C 238.15,392.48 245.69,391.99 249.00,392.00
             249.00,392.00 267.00,392.00 267.00,392.00
             275.64,391.84 273.82,387.65 271.68,386.60
             270.22,385.87 266.70,386.00 265.00,386.00
             259.53,385.99 245.99,385.15 241.62,387.02 Z
           M 283.62,387.02
           C 280.40,392.10 286.64,391.98 290.00,392.00
             290.00,392.00 339.00,392.00 339.00,392.00
             340.94,392.00 344.86,392.23 346.38,390.98
             350.88,387.31 343.13,386.04 341.00,386.00
             341.00,386.00 302.00,386.00 302.00,386.00
             296.93,386.00 288.03,385.13 283.62,387.02 Z
           M 358.62,387.02
           C 354.00,394.29 371.00,392.11 372.38,390.98
             374.14,389.54 373.62,387.13 370.85,386.31
             367.83,385.42 361.46,385.80 358.62,387.02 Z
           M 215.00,403.00
           C 215.00,403.00 215.00,408.00 215.00,408.00
             215.00,408.00 232.00,408.00 232.00,408.00
             232.00,408.00 232.00,403.00 232.00,403.00
             232.00,403.00 215.00,403.00 215.00,403.00 Z
           M 240.00,408.00
           C 240.00,408.00 315.00,408.00 315.00,408.00
             315.00,408.00 315.00,403.00 315.00,403.00
             315.00,403.00 258.00,403.00 258.00,403.00
             258.00,403.00 241.60,404.02 241.60,404.02
             241.60,404.02 240.00,408.00 240.00,408.00 Z
           M 323.00,408.00
           C 323.00,408.00 356.00,408.00 356.00,408.00
             356.00,408.00 356.00,403.00 356.00,403.00
             356.00,403.00 330.00,403.00 330.00,403.00
             325.20,403.09 323.87,403.07 323.00,408.00 Z
           M 199.00,410.00
           C 199.00,410.00 199.00,446.00 199.00,446.00
             199.00,446.00 163.00,446.00 163.00,446.00
             158.66,446.01 156.17,445.87 152.00,447.47
             142.41,451.14 134.14,459.65 132.08,470.00
             132.08,470.00 132.08,485.00 132.08,485.00
             132.08,485.00 132.08,507.00 132.08,507.00
             132.08,507.00 132.08,711.00 132.08,711.00
             132.03,729.49 144.51,741.97 163.00,742.00
             163.00,742.00 228.00,742.00 228.00,742.00
             228.00,742.00 548.00,742.00 548.00,742.00
             548.00,742.00 548.00,806.00 548.00,806.00
             548.00,806.00 134.00,806.00 134.00,806.00
             119.00,805.98 105.73,803.20 98.90,788.00
             95.01,779.33 96.00,758.13 96.00,748.00
             96.00,748.00 96.00,667.00 96.00,667.00
             96.00,667.00 96.00,448.00 96.00,448.00
             96.02,433.30 98.51,420.62 113.00,413.38
             120.62,409.57 134.43,410.00 143.00,410.00
             143.00,410.00 199.00,410.00 199.00,410.00 Z
           M 684.00,571.00
           C 684.00,571.00 648.00,571.00 648.00,571.00
             648.00,571.00 648.00,475.00 648.00,475.00
             647.79,457.58 633.81,446.03 617.00,446.00
             617.00,446.00 531.00,446.00 531.00,446.00
             531.00,446.00 531.00,410.00 531.00,410.00
             531.00,410.00 646.00,410.00 646.00,410.00
             650.45,410.01 659.96,410.72 664.00,412.11
             679.98,417.59 683.93,431.89 684.00,447.00
             684.00,447.00 684.00,571.00 684.00,571.00 Z
           M 217.33,420.02
           C 211.03,427.32 230.66,425.43 231.83,423.42
             233.05,421.34 230.65,419.78 228.94,419.31
             225.76,418.44 220.36,418.86 217.33,420.02 Z
           M 240.00,420.00
           C 241.03,425.87 243.74,424.99 249.00,425.00
             249.00,425.00 298.00,425.00 298.00,425.00
             298.00,425.00 298.00,420.00 298.00,420.00
             298.00,420.00 240.00,420.00 240.00,420.00 Z
           M 307.00,420.00
           C 307.00,420.00 307.00,425.00 307.00,425.00
             307.00,425.00 365.00,425.00 365.00,425.00
             365.00,425.00 365.00,420.00 365.00,420.00
             365.00,420.00 307.00,420.00 307.00,420.00 Z
           M 374.66,421.00
           C 372.04,425.68 379.21,424.99 382.00,425.00
             382.00,425.00 400.00,425.00 400.00,425.00
             401.52,424.97 407.88,424.78 405.83,421.54
             404.80,419.92 401.67,420.04 400.00,420.00
             394.56,419.90 378.87,419.20 374.66,421.00 Z
           M 1127.00,460.00
           C 1127.00,460.00 799.00,460.00 799.00,460.00
             799.00,460.00 799.00,443.00 799.00,443.00
             799.07,431.90 805.12,430.02 815.00,430.00
             815.00,430.00 869.00,430.00 869.00,430.00
             869.00,430.00 1111.00,430.00 1111.00,430.00
             1113.51,430.00 1116.60,429.89 1118.99,430.65
             1121.99,431.60 1125.33,434.14 1126.44,437.17
             1127.41,439.83 1127.00,456.00 1127.00,460.00 Z
           M 215.00,442.00
           C 215.00,442.00 225.00,442.00 225.00,442.00
             227.13,441.96 234.88,440.69 230.38,437.02
             228.57,435.53 218.44,435.57 216.60,437.02
             215.04,438.26 215.15,440.23 215.00,442.00 Z
           M 241.62,437.02
           C 238.15,442.48 245.69,441.99 249.00,442.00
             249.00,442.00 266.00,442.00 266.00,442.00
             274.64,441.84 272.82,437.65 270.68,436.60
             269.33,435.93 266.53,436.01 265.00,436.00
             259.59,435.96 245.94,435.17 241.62,437.02 Z
           M 283.62,437.02
           C 280.15,442.48 287.69,441.99 291.00,442.00
             291.00,442.00 308.00,442.00 308.00,442.00
             316.64,441.84 314.82,437.65 312.68,436.60
             311.33,435.93 308.53,436.01 307.00,436.00
             301.59,435.96 287.94,435.17 283.62,437.02 Z
           M 324.62,437.02
           C 321.15,442.48 328.69,441.99 332.00,442.00
             332.00,442.00 350.00,442.00 350.00,442.00
             358.64,441.84 356.82,437.65 354.68,436.60
             353.22,435.87 349.70,436.00 348.00,436.00
             342.53,435.99 328.99,435.15 324.62,437.02 Z
           M 812.13,440.96
           C 806.49,444.28 810.18,450.24 813.87,449.26
             817.15,448.38 818.95,441.25 812.13,440.96 Z
           M 829.06,441.05
           C 822.32,444.44 827.21,450.22 830.78,449.26
             833.96,448.40 835.21,442.05 829.06,441.05 Z
           M 850.13,441.00
           C 848.81,441.12 846.08,441.23 845.14,441.66
             837.45,445.17 848.49,454.94 850.13,445.99
             850.55,444.53 850.09,442.52 850.13,441.00 Z
           M 199.00,448.00
           C 199.00,448.00 199.00,559.00 199.00,559.00
             199.01,562.95 198.72,566.48 201.57,569.66
             204.30,572.71 207.19,572.93 211.00,573.00
             211.00,573.00 237.00,573.00 237.00,573.00
             237.00,573.00 362.00,573.00 362.00,573.00
             362.00,573.00 517.00,573.00 517.00,573.00
             519.53,573.00 522.61,573.15 524.96,572.15
             527.30,571.15 529.15,569.30 530.15,566.96
             531.58,563.58 531.00,547.68 531.00,543.00
             531.00,543.00 531.00,448.00 531.00,448.00
             531.00,448.00 611.00,448.00 611.00,448.00
             619.76,448.01 628.11,449.29 635.00,455.21
             643.90,462.86 645.98,471.77 646.00,483.00
             646.00,483.00 646.00,571.00 646.00,571.00
             646.00,571.00 566.00,571.00 566.00,571.00
             563.45,571.00 560.42,570.88 558.00,571.70
             553.83,573.11 550.11,576.83 548.70,581.00
             547.44,584.71 548.00,605.59 548.00,611.00
             548.00,611.00 548.00,740.00 548.00,740.00
             548.00,740.00 172.00,740.00 172.00,740.00
             167.12,739.99 157.39,739.26 153.00,737.52
             138.74,731.86 134.17,719.19 134.00,705.00
             134.00,705.00 134.00,651.00 134.00,651.00
             134.00,651.00 134.00,484.00 134.00,484.00
             134.03,461.70 144.83,448.11 168.00,448.00
             168.00,448.00 199.00,448.00 199.00,448.00 Z
           M 215.00,453.00
           C 215.00,453.00 215.00,458.00 215.00,458.00
             215.00,458.00 232.00,458.00 232.00,458.00
             232.00,458.00 232.00,453.00 232.00,453.00
             232.00,453.00 215.00,453.00 215.00,453.00 Z
           M 240.00,458.00
           C 240.00,458.00 315.00,458.00 315.00,458.00
             313.97,452.13 311.26,453.01 306.00,453.00
             306.00,453.00 249.00,453.00 249.00,453.00
             243.74,453.01 241.03,452.13 240.00,458.00 Z
           M 324.66,454.00
           C 322.04,458.68 329.21,457.99 332.00,458.00
             332.00,458.00 350.00,458.00 350.00,458.00
             351.52,457.97 357.88,457.78 355.83,454.54
             354.80,452.92 351.67,453.04 350.00,453.00
             344.56,452.90 328.87,452.20 324.66,454.00 Z
           M 365.00,453.07
           C 365.00,453.07 365.00,458.00 365.00,458.00
             367.91,458.00 379.35,458.80 380.83,456.46
             382.14,454.40 379.45,453.40 377.94,453.07
             377.94,453.07 365.00,453.07 365.00,453.07 Z
           M 1127.00,462.00
           C 1127.00,462.00 1127.00,680.00 1127.00,680.00
             1126.98,690.92 1124.06,693.94 1113.00,694.00
             1113.00,694.00 1054.00,694.00 1054.00,694.00
             1054.00,694.00 814.00,694.00 814.00,694.00
             809.12,693.99 804.13,694.21 800.89,689.79
             798.29,686.24 799.00,679.35 799.00,675.00
             799.00,675.00 799.00,640.00 799.00,640.00
             799.00,640.00 799.00,462.00 799.00,462.00
             799.00,462.00 1127.00,462.00 1127.00,462.00 Z
           M 232.00,469.00
           C 232.00,469.00 222.00,469.00 222.00,469.00
             219.87,469.04 212.12,470.31 216.62,473.98
             218.43,475.47 228.56,475.43 230.40,473.98
             231.96,472.74 231.85,470.77 232.00,469.00 Z
           M 240.00,470.00
           C 240.96,475.45 242.95,474.97 248.00,475.00
             248.00,475.00 273.00,475.00 273.00,475.00
             273.00,475.00 273.00,470.00 273.00,470.00
             273.00,470.00 240.00,470.00 240.00,470.00 Z
           M 282.00,470.00
           C 282.00,470.00 282.00,475.00 282.00,475.00
             282.00,475.00 308.00,475.00 308.00,475.00
             312.80,474.91 314.13,474.93 315.00,470.00
             315.00,470.00 282.00,470.00 282.00,470.00 Z
           M 324.66,471.00
           C 322.04,475.68 329.21,474.99 332.00,475.00
             332.00,475.00 350.00,475.00 350.00,475.00
             351.52,474.97 357.88,474.78 355.83,471.54
             354.80,469.92 351.67,470.04 350.00,470.00
             344.56,469.90 328.87,469.20 324.66,471.00 Z
           M 365.00,470.00
           C 365.00,470.00 365.00,475.00 365.00,475.00
             365.00,475.00 391.00,475.00 391.00,475.00
             395.80,474.91 397.13,474.93 398.00,470.00
             398.00,470.00 365.00,470.00 365.00,470.00 Z
           M 977.31,477.03
           C 974.02,480.50 973.63,486.38 972.86,491.00
             972.86,491.00 968.12,514.00 968.12,514.00
             968.12,514.00 947.50,614.00 947.50,614.00
             947.50,614.00 941.93,642.00 941.93,642.00
             941.41,647.72 945.81,649.17 948.70,647.17
             951.28,645.39 952.19,639.95 952.74,637.00
             952.74,637.00 957.51,613.00 957.51,613.00
             957.51,613.00 978.34,512.00 978.34,512.00
             978.34,512.00 984.28,483.00 984.28,483.00
             984.96,477.68 982.41,475.22 977.31,477.03 Z
           M 232.00,492.00
           C 231.85,490.23 231.96,488.26 230.40,487.02
             228.56,485.57 218.43,485.53 216.62,487.02
             212.12,490.69 219.87,491.96 222.00,492.00
             222.00,492.00 232.00,492.00 232.00,492.00 Z
           M 241.62,487.02
           C 238.15,492.48 245.69,491.99 249.00,492.00
             249.00,492.00 266.00,492.00 266.00,492.00
             274.64,491.84 272.82,487.65 270.68,486.60
             269.33,485.93 266.53,486.01 265.00,486.00
             259.59,485.96 245.94,485.17 241.62,487.02 Z
           M 283.62,487.02
           C 280.68,491.64 285.57,491.93 289.00,492.00
             289.00,492.00 331.00,492.00 331.00,492.00
             332.70,492.00 336.22,492.13 337.68,491.40
             338.67,490.92 339.37,490.16 339.37,489.00
             339.37,485.65 334.20,486.02 332.00,486.00
             332.00,486.00 300.00,486.00 300.00,486.00
             295.26,486.00 287.81,485.22 283.62,487.02 Z
           M 349.62,487.02
           C 346.15,492.48 353.69,491.99 357.00,492.00
             357.00,492.00 375.00,492.00 375.00,492.00
             383.64,491.84 381.82,487.65 379.68,486.60
             378.22,485.87 374.70,486.00 373.00,486.00
             367.53,485.99 353.99,485.15 349.62,487.02 Z
           M 854.00,549.00
           C 851.31,552.78 846.26,557.15 846.52,562.00
             846.87,568.22 855.08,573.86 859.42,577.74
             859.42,577.74 884.42,600.41 884.42,600.41
             884.42,600.41 897.15,611.32 897.15,611.32
             897.15,611.32 914.00,626.37 914.00,626.37
             916.29,628.15 919.68,630.80 922.69,628.96
             926.94,626.35 923.87,621.45 921.37,619.00
             921.37,619.00 899.09,598.95 899.09,598.95
             892.07,592.35 881.23,584.31 876.00,577.00
             871.99,575.94 862.50,567.28 861.56,562.99
             860.96,560.21 862.64,557.71 863.00,555.00
             867.62,553.49 873.98,546.47 878.01,543.01
             878.01,543.01 909.42,515.00 909.42,515.00
             913.04,511.82 923.30,504.14 924.60,500.00
             925.76,496.31 922.45,493.80 919.00,494.37
             916.03,494.86 909.94,500.18 907.58,502.37
             907.58,502.37 871.58,534.37 871.58,534.37
             867.97,537.72 858.16,548.12 854.00,549.00 Z
           M 1016.00,517.00
           C 1021.27,518.39 1031.29,529.84 1036.17,533.86
             1036.17,533.86 1054.17,549.86 1054.17,549.86
             1057.20,552.37 1063.12,557.17 1064.16,561.00
             1065.75,566.89 1054.11,575.45 1049.99,578.99
             1049.99,578.99 1014.00,610.93 1014.00,610.93
             1011.08,613.58 1001.86,620.84 1000.84,624.16
             999.63,628.14 1003.98,632.28 1009.42,628.79
             1009.42,628.79 1029.17,611.49 1029.17,611.49
             1031.83,609.16 1034.46,605.75 1038.00,605.00
             1043.33,597.56 1061.21,583.06 1069.00,576.00
             1073.74,571.71 1080.51,567.60 1078.57,560.00
             1076.88,553.42 1068.26,549.73 1062.00,541.00
             1057.56,539.83 1049.68,531.58 1046.17,528.10
             1046.17,528.10 1033.42,517.00 1033.42,517.00
             1033.42,517.00 1020.01,504.99 1020.01,504.99
             1016.65,502.10 1008.57,493.23 1004.11,494.66
             996.10,497.20 1003.98,504.94 1007.00,507.58
             1010.99,511.07 1012.85,512.61 1016.00,517.00 Z
           M 215.00,503.00
           C 215.00,503.00 215.00,508.00 215.00,508.00
             215.00,508.00 232.00,508.00 232.00,508.00
             232.00,508.00 232.00,503.00 232.00,503.00
             232.00,503.00 215.00,503.00 215.00,503.00 Z
           M 240.00,508.00
           C 240.00,508.00 273.00,508.00 273.00,508.00
             273.00,508.00 273.00,503.00 273.00,503.00
             273.00,503.00 247.00,503.00 247.00,503.00
             242.20,503.09 240.87,503.07 240.00,508.00 Z
           M 282.00,503.00
           C 282.00,503.00 282.00,508.00 282.00,508.00
             282.00,508.00 298.00,508.00 298.00,508.00
             298.00,508.00 305.40,506.98 305.40,506.98
             305.40,506.98 307.00,503.00 307.00,503.00
             307.00,503.00 282.00,503.00 282.00,503.00 Z
           M 215.00,520.07
           C 215.00,520.07 215.00,525.00 215.00,525.00
             217.91,525.00 229.35,525.80 230.83,523.46
             232.14,521.40 229.45,520.40 227.94,520.07
             227.94,520.07 215.00,520.07 215.00,520.07 Z
           M 240.00,520.00
           C 240.96,525.45 242.95,524.97 248.00,525.00
             248.00,525.00 283.00,525.00 283.00,525.00
             287.80,524.91 289.13,524.93 290.00,520.00
             290.00,520.00 240.00,520.00 240.00,520.00 Z
           M 797.00,573.00
           C 797.00,573.00 797.00,598.00 797.00,598.00
             797.00,598.00 590.00,598.00 590.00,598.00
             581.97,598.01 575.50,598.96 571.45,607.00
             569.45,610.99 570.00,617.49 570.00,622.00
             570.00,622.00 570.00,651.00 570.00,651.00
             570.00,651.00 570.00,826.00 570.00,826.00
             570.01,832.14 570.35,837.59 576.04,841.40
             579.34,843.61 585.08,843.00 589.00,843.00
             589.00,843.00 616.00,843.00 616.00,843.00
             616.00,843.00 765.00,843.00 765.00,843.00
             765.00,843.00 1009.00,843.00 1009.00,843.00
             1011.40,843.00 1014.77,843.13 1016.98,842.26
             1027.72,838.04 1025.00,818.41 1025.00,809.00
             1025.00,809.00 1025.00,696.00 1025.00,696.00
             1025.00,696.00 1033.00,696.00 1033.00,696.00
             1035.30,696.00 1039.41,695.62 1040.98,697.60
             1042.23,699.19 1042.00,703.01 1042.00,705.00
             1042.00,705.00 1042.00,732.00 1042.00,732.00
             1042.00,732.00 1042.00,852.00 1042.00,852.00
             1042.00,854.78 1042.21,858.42 1040.83,860.89
             1037.97,866.01 1028.40,867.93 1023.00,868.00
             1023.00,868.00 933.00,868.00 933.00,868.00
             933.00,868.00 571.00,868.00 571.00,868.00
             565.33,867.99 557.37,867.78 553.56,862.87
             550.84,859.37 551.01,854.21 551.00,850.00
             551.00,850.00 551.00,804.00 551.00,804.00
             551.00,804.00 551.00,595.00 551.00,595.00
             551.01,588.28 551.45,581.06 557.10,576.43
             560.73,573.45 565.51,573.06 570.00,573.00
             570.00,573.00 608.00,573.00 608.00,573.00
             608.00,573.00 797.00,573.00 797.00,573.00 Z
           M 797.00,601.00
           C 797.00,601.00 797.00,682.00 797.00,682.00
             797.01,686.81 796.80,690.96 801.19,694.11
             804.82,696.71 811.59,696.00 816.00,696.00
             816.00,696.00 849.00,696.00 849.00,696.00
             849.00,696.00 1020.00,696.00 1020.00,696.00
             1020.00,696.00 1020.00,822.00 1020.00,822.00
             1019.99,829.72 1018.49,836.92 1010.00,839.61
             1003.57,841.65 987.45,841.00 980.00,841.00
             980.00,841.00 922.00,841.00 922.00,841.00
             922.00,841.00 597.00,841.00 597.00,841.00
             592.45,840.99 584.88,840.74 581.02,838.26
             575.58,834.78 574.08,830.07 574.00,824.00
             574.00,824.00 574.00,789.00 574.00,789.00
             574.00,789.00 574.00,620.00 574.00,620.00
             574.01,613.13 574.61,607.85 581.02,603.74
             584.35,601.60 591.04,601.05 595.00,601.00
             595.00,601.00 626.00,601.00 626.00,601.00
             626.00,601.00 797.00,601.00 797.00,601.00 Z
           M 384.00,764.56
           C 373.00,768.44 372.90,779.39 378.34,784.44
             382.44,788.25 390.80,788.81 396.00,787.44
             406.56,784.66 407.19,772.69 401.66,767.56
             397.10,763.33 389.72,763.55 384.00,764.56 Z
           M 386.00,765.21
           C 391.59,764.77 397.54,764.54 401.57,769.21
             407.51,776.10 402.23,785.50 394.00,786.79
             389.17,787.55 382.94,787.10 379.23,783.61
             373.50,778.22 374.88,767.83 386.00,765.21 Z
           M 415.00,809.00
           C 415.00,809.00 422.00,873.00 422.00,873.00
             422.00,873.00 360.00,873.00 360.00,873.00
             360.00,873.00 363.83,830.00 363.83,830.00
             364.11,827.10 364.84,814.08 365.74,812.29
             367.19,809.42 371.27,810.00 374.00,810.00
             374.00,810.00 401.00,810.00 401.00,810.00
             401.00,810.00 415.00,809.00 415.00,809.00 Z
           M 1081.00,892.00
           C 1081.00,892.00 1146.00,892.00 1146.00,892.00
             1146.00,888.29 1146.24,884.50 1144.77,881.00
             1142.22,874.90 1133.38,866.72 1127.00,864.80
             1124.25,863.97 1121.82,864.01 1119.00,864.00
             1106.05,863.94 1099.16,862.13 1089.01,872.04
             1086.40,874.59 1083.65,877.59 1082.23,881.00
             1080.76,884.50 1081.00,888.29 1081.00,892.00 Z
           M 1111.00,867.00
           C 1111.00,867.00 1111.00,871.00 1111.00,871.00
             1116.92,870.08 1116.94,868.01 1121.04,868.23
             1127.69,868.59 1136.72,874.92 1139.30,881.00
             1140.40,883.59 1140.77,887.20 1141.00,890.00
             1141.00,890.00 1107.00,890.00 1107.00,890.00
             1107.00,890.00 1086.00,889.00 1086.00,889.00
             1086.46,886.48 1087.06,882.16 1088.17,880.00
             1092.96,870.66 1102.10,869.25 1111.00,867.00 Z
           M 1117.00,867.00
           C 1117.00,867.00 1117.00,868.00 1117.00,868.00
             1117.00,868.00 1116.00,867.00 1116.00,867.00
             1116.00,867.00 1117.00,867.00 1117.00,867.00 Z
           M 779.00,873.00
           C 779.18,886.94 788.05,884.11 804.00,884.00
             807.20,883.98 810.22,884.15 812.69,881.69
             815.17,879.20 814.96,876.22 815.00,873.00
             815.00,873.00 1045.00,873.00 1045.00,873.00
             1050.66,873.01 1059.63,872.73 1060.76,880.02
             1062.29,889.87 1051.80,889.99 1045.00,890.00
             1045.00,890.00 942.00,890.00 942.00,890.00
             942.00,890.00 549.00,890.00 549.00,890.00
             543.32,889.99 535.00,890.10 533.47,883.00
             531.47,873.68 542.88,873.01 549.00,873.00
             549.00,873.00 590.00,873.00 590.00,873.00
             590.00,873.00 779.00,873.00 779.00,873.00 Z
           M 814.00,873.00
           C 813.65,875.43 813.42,878.40 811.44,880.15
             809.17,882.15 804.87,881.99 802.00,882.00
             784.41,882.08 781.51,883.37 780.00,873.00
             780.00,873.00 814.00,873.00 814.00,873.00 Z
           M 331.00,877.11
           C 331.00,877.11 370.00,877.11 370.00,877.11
             370.00,877.11 443.00,877.11 443.00,877.11
             447.39,877.01 454.48,876.60 455.92,882.05
             457.99,889.84 447.82,889.99 443.00,890.00
             443.00,890.00 355.00,890.00 355.00,890.00
             350.02,890.00 332.62,890.58 329.05,889.11
             323.68,886.89 322.44,879.92 331.00,877.11 Z" />
</svg>
