<?xml version="1.0" encoding="UTF-8" standalone="no"?>
<!DOCTYPE svg PUBLIC "-//W3C//DTD SVG 20010904//EN"
              "http://www.w3.org/TR/2001/REC-SVG-20010904/DTD/svg10.dtd">

<svg xmlns="http://www.w3.org/2000/svg"
     viewBox="0 0 1200 603">
  <path id="Selection"
        fill="#8e8e90" stroke="#8e8e90" stroke-width="1"
        d="M 199.00,108.00
           C 199.00,108.00 128.00,108.00 128.00,108.00
             113.20,108.02 100.52,113.98 95.60,129.00
             93.36,135.82 94.00,145.68 94.00,153.00
             94.00,153.00 94.00,193.00 94.00,193.00
             94.00,193.00 94.00,474.00 94.00,474.00
             94.01,478.64 94.13,482.52 95.60,487.00
             97.09,491.57 99.65,495.57 103.04,498.96
             113.12,509.03 123.04,508.00 136.00,508.00
             136.00,508.00 156.00,508.00 156.00,508.00
             156.00,508.00 363.00,508.00 363.00,508.00
             363.00,508.00 358.28,555.00 358.28,555.00
             358.28,555.00 356.26,572.85 356.26,572.85
             354.58,576.58 350.41,575.99 347.00,576.00
             347.00,576.00 328.00,576.00 328.00,576.00
             328.00,576.00 341.00,577.00 341.00,577.00
             341.00,577.00 366.00,577.00 366.00,577.00
             366.00,577.00 453.00,577.00 453.00,577.00
             453.00,577.00 425.00,576.00 425.00,576.00
             425.00,576.00 420.28,529.00 420.28,529.00
             420.28,529.00 418.00,508.00 418.00,508.00
             418.00,508.00 548.00,508.00 548.00,508.00
             548.00,508.00 548.00,554.00 548.00,554.00
             548.10,562.07 549.66,566.02 557.00,570.00
             554.05,570.84 553.06,570.95 550.00,571.00
             550.00,571.00 541.00,571.00 541.00,571.00
             537.15,571.01 533.33,570.67 530.23,573.43
             525.35,577.76 526.13,586.68 532.04,589.83
             534.63,591.21 538.13,591.00 541.00,591.00
             541.00,591.00 1054.00,591.00 1054.00,591.00
             1057.19,590.99 1061.09,591.29 1063.77,589.26
             1068.17,585.95 1068.17,576.05 1063.77,572.74
             1059.98,569.87 1042.50,571.00 1037.00,571.00
             1037.00,571.00 1044.43,563.00 1044.43,563.00
             1044.43,563.00 1046.00,552.00 1046.00,552.00
             1046.00,552.00 1046.00,523.00 1046.00,523.00
             1046.00,523.00 1046.00,396.00 1046.00,396.00
             1046.00,396.00 1113.00,396.00 1113.00,396.00
             1118.51,395.99 1123.76,396.21 1127.15,390.95
             1129.70,386.98 1129.00,378.78 1129.00,374.00
             1129.00,374.00 1129.00,337.00 1129.00,337.00
             1129.00,337.00 1129.00,144.00 1129.00,144.00
             1128.98,133.11 1126.99,128.15 1115.00,128.00
             1115.00,128.00 1056.00,128.00 1056.00,128.00
             1056.00,128.00 813.00,128.00 813.00,128.00
             809.77,128.01 805.97,127.82 803.02,129.31
             800.55,130.56 798.89,132.43 797.89,135.00
             796.41,138.81 797.00,156.75 797.00,162.00
             797.00,162.00 797.00,271.00 797.00,271.00
             797.00,271.00 686.00,271.00 686.00,271.00
             686.00,271.00 686.00,142.00 686.00,142.00
             685.98,127.20 680.02,114.52 665.00,109.60
             660.52,108.13 656.64,108.01 652.00,108.00
             652.00,108.00 531.00,108.00 531.00,108.00
             531.00,108.00 531.00,21.00 531.00,21.00
             530.98,10.11 528.99,5.15 517.00,5.00
             517.00,5.00 458.00,5.00 458.00,5.00
             458.00,5.00 215.00,5.00 215.00,5.00
             202.41,5.02 199.02,8.41 199.00,21.00
             199.00,21.00 199.00,108.00 199.00,108.00 Z
           M 530.00,37.00
           C 530.00,37.00 200.00,37.00 200.00,37.00
             200.00,37.00 200.00,21.00 200.00,21.00
             200.01,15.79 199.84,11.33 205.09,8.45
             208.89,6.37 217.48,7.00 222.00,7.00
             222.00,7.00 260.00,7.00 260.00,7.00
             260.00,7.00 460.00,7.00 460.00,7.00
             460.00,7.00 515.00,7.00 515.00,7.00
             519.45,7.01 524.09,6.73 527.35,10.39
             531.41,14.95 530.00,30.65 530.00,37.00 Z
           M 214.24,18.96
           C 210.17,21.93 213.14,26.09 215.74,25.26
             217.86,24.58 219.62,19.22 214.24,18.96 Z
           M 231.17,19.05
           C 226.06,22.04 230.01,26.17 232.70,24.83
             234.84,23.76 235.71,19.87 231.17,19.05 Z
           M 246.59,20.04
           C 242.93,25.45 249.80,27.30 251.16,23.72
             252.47,20.25 249.56,18.96 246.59,20.04 Z
           M 530.00,38.00
           C 530.00,38.00 530.00,256.00 530.00,256.00
             529.99,261.88 530.03,267.36 523.96,270.43
             519.46,272.71 508.39,272.00 503.00,272.00
             503.00,272.00 457.00,272.00 457.00,272.00
             457.00,272.00 217.00,272.00 217.00,272.00
             211.88,271.99 206.25,272.13 202.65,267.78
             199.78,264.30 200.01,260.21 200.00,256.00
             200.00,256.00 200.00,218.00 200.00,218.00
             200.00,218.00 200.00,38.00 200.00,38.00
             200.00,38.00 530.00,38.00 530.00,38.00 Z
           M 216.66,54.00
           C 213.27,60.05 228.68,58.28 229.83,56.46
             231.14,54.40 228.45,53.40 226.94,53.15
             223.67,52.60 219.67,52.71 216.66,54.00 Z
           M 241.00,54.00
           C 242.59,58.55 244.54,57.97 249.00,58.00
             249.00,58.00 281.00,58.00 281.00,58.00
             281.00,58.00 281.00,54.00 281.00,54.00
             281.00,54.00 241.00,54.00 241.00,54.00 Z
           M 291.00,54.00
           C 291.00,54.00 294.15,57.70 294.15,57.70
             294.15,57.70 299.00,57.70 299.00,57.70
             299.00,57.70 320.69,57.70 320.69,57.70
             320.69,57.70 323.00,54.00 323.00,54.00
             323.00,54.00 291.00,54.00 291.00,54.00 Z
           M 332.00,54.00
           C 332.43,55.23 332.38,56.05 333.59,56.99
             336.27,59.02 344.90,57.88 348.00,56.99
             348.00,56.99 348.00,55.00 348.00,55.00
             348.00,55.00 332.00,54.00 332.00,54.00 Z
           M 216.00,70.00
           C 216.00,70.00 216.00,74.00 216.00,74.00
             216.00,74.00 232.00,73.00 232.00,73.00
             232.00,73.00 232.00,71.00 232.00,71.00
             232.00,71.00 216.00,70.00 216.00,70.00 Z
           M 241.00,74.00
           C 241.00,74.00 298.00,74.00 298.00,74.00
             296.55,69.86 295.15,70.08 291.00,70.00
             291.00,70.00 249.00,70.00 249.00,70.00
             244.54,70.03 242.59,69.45 241.00,74.00 Z
           M 308.00,70.00
           C 308.00,70.00 308.00,74.00 308.00,74.00
             308.00,74.00 340.00,73.00 340.00,73.00
             340.00,73.00 340.00,71.00 340.00,71.00
             340.00,71.00 308.00,70.00 308.00,70.00 Z
           M 349.00,74.00
           C 349.00,74.00 431.00,74.00 431.00,74.00
             431.00,74.00 429.41,71.02 429.41,71.02
             429.41,71.02 415.00,70.00 415.00,70.00
             415.00,70.00 367.00,70.00 367.00,70.00
             367.00,70.00 350.59,71.02 350.59,71.02
             350.59,71.02 349.00,74.00 349.00,74.00 Z
           M 216.00,87.00
           C 216.00,87.00 216.00,91.00 216.00,91.00
             216.00,91.00 232.00,90.00 232.00,90.00
             232.00,90.00 232.00,88.00 232.00,88.00
             232.00,88.00 216.00,87.00 216.00,87.00 Z
           M 241.00,88.00
           C 241.00,88.00 241.00,90.00 241.00,90.00
             246.96,91.69 267.04,91.69 273.00,90.00
             273.00,90.00 273.00,88.00 273.00,88.00
             267.27,86.37 246.73,86.37 241.00,88.00 Z
           M 283.00,87.00
           C 283.00,87.00 283.00,91.00 283.00,91.00
             283.00,91.00 325.00,91.00 325.00,91.00
             325.00,91.00 348.00,90.00 348.00,90.00
             348.00,90.00 348.00,88.00 348.00,88.00
             348.00,88.00 325.00,87.00 325.00,87.00
             325.00,87.00 283.00,87.00 283.00,87.00 Z
           M 357.00,88.00
           C 357.00,88.00 357.00,90.00 357.00,90.00
             362.14,91.46 367.86,91.46 373.00,90.00
             373.00,90.00 373.00,88.00 373.00,88.00
             367.86,86.54 362.14,86.54 357.00,88.00 Z
           M 215.00,105.00
           C 216.19,106.18 216.38,106.72 218.11,107.41
             220.25,108.25 228.46,108.63 229.83,106.46
             231.66,103.58 226.54,103.08 225.00,103.02
             220.59,102.84 218.92,102.93 215.00,105.00 Z
           M 241.00,104.00
           C 241.00,104.00 242.59,106.98 242.59,106.98
             242.59,106.98 259.00,108.00 259.00,108.00
             259.00,108.00 295.00,108.00 295.00,108.00
             295.00,108.00 315.00,107.00 315.00,107.00
             315.00,107.00 315.00,105.00 315.00,105.00
             315.00,105.00 289.00,104.00 289.00,104.00
             289.00,104.00 241.00,104.00 241.00,104.00 Z
           M 324.00,104.00
           C 325.45,108.14 326.85,107.92 331.00,108.00
             337.51,108.12 350.20,108.65 356.00,107.00
             356.00,107.00 356.00,105.00 356.00,105.00
             356.00,105.00 324.00,104.00 324.00,104.00 Z
           M 199.00,110.00
           C 199.00,110.00 199.00,146.00 199.00,146.00
             199.00,146.00 167.00,146.00 167.00,146.00
             146.06,146.03 132.10,158.70 132.00,180.00
             132.00,180.00 132.00,407.00 132.00,407.00
             132.03,427.12 144.21,441.75 165.00,442.00
             165.00,442.00 228.00,442.00 228.00,442.00
             228.00,442.00 548.00,442.00 548.00,442.00
             548.00,442.00 548.00,506.00 548.00,506.00
             548.00,506.00 127.00,506.00 127.00,506.00
             108.04,505.97 96.03,493.96 96.00,475.00
             96.00,475.00 96.00,367.00 96.00,367.00
             96.00,367.00 96.00,141.00 96.00,141.00
             96.03,122.04 108.04,110.03 127.00,110.00
             127.00,110.00 199.00,110.00 199.00,110.00 Z
           M 684.00,271.00
           C 684.00,271.00 648.00,271.00 648.00,271.00
             648.00,271.00 648.00,181.00 648.00,181.00
             647.97,159.22 634.78,146.03 613.00,146.00
             613.00,146.00 531.00,146.00 531.00,146.00
             531.00,146.00 531.00,110.00 531.00,110.00
             531.00,110.00 653.00,110.00 653.00,110.00
             671.96,110.03 683.97,122.04 684.00,141.00
             684.00,141.00 684.00,271.00 684.00,271.00 Z
           M 216.00,124.00
           C 216.00,124.00 232.00,124.00 232.00,124.00
             231.57,122.77 231.62,121.95 230.41,121.02
             228.47,119.54 219.53,119.54 217.59,121.02
             216.38,121.95 216.43,122.77 216.00,124.00 Z
           M 241.00,124.00
           C 241.00,124.00 277.00,124.00 277.00,124.00
             277.00,124.00 298.00,123.00 298.00,123.00
             298.00,123.00 298.00,121.00 298.00,121.00
             292.29,119.38 285.92,120.00 280.00,120.00
             280.00,120.00 249.00,120.00 249.00,120.00
             244.54,120.03 242.59,119.45 241.00,124.00 Z
           M 307.00,121.00
           C 307.00,121.00 307.00,123.00 307.00,123.00
             307.00,123.00 341.00,124.00 341.00,124.00
             341.00,124.00 365.00,123.00 365.00,123.00
             365.00,123.00 365.00,121.00 365.00,121.00
             365.00,121.00 341.00,120.00 341.00,120.00
             341.00,120.00 307.00,121.00 307.00,121.00 Z
           M 374.00,124.00
           C 374.00,124.00 406.00,124.00 406.00,124.00
             406.00,124.00 403.69,120.31 403.69,120.31
             403.69,120.31 381.00,120.31 381.00,120.31
             381.00,120.31 377.15,120.31 377.15,120.31
             377.15,120.31 374.00,124.00 374.00,124.00 Z
           M 1128.00,160.00
           C 1128.00,160.00 798.00,160.00 798.00,160.00
             798.00,160.00 798.00,144.00 798.00,144.00
             798.01,138.79 797.84,134.33 803.09,131.45
             806.89,129.37 815.48,130.00 820.00,130.00
             820.00,130.00 858.00,130.00 858.00,130.00
             858.00,130.00 1058.00,130.00 1058.00,130.00
             1058.00,130.00 1113.00,130.00 1113.00,130.00
             1117.45,130.01 1122.09,129.73 1125.35,133.39
             1129.41,137.95 1128.00,153.65 1128.00,160.00 Z
           M 215.00,138.00
           C 215.00,138.00 215.00,140.00 215.00,140.00
             215.00,140.00 231.00,141.00 231.00,141.00
             231.00,141.00 231.00,137.00 231.00,137.00
             231.00,137.00 215.00,138.00 215.00,138.00 Z
           M 241.00,137.00
           C 241.00,137.00 241.00,141.00 241.00,141.00
             241.00,141.00 273.00,140.00 273.00,140.00
             273.00,140.00 273.00,138.00 273.00,138.00
             273.00,138.00 241.00,137.00 241.00,137.00 Z
           M 282.00,138.00
           C 282.00,138.00 282.00,140.00 282.00,140.00
             282.00,140.00 314.00,141.00 314.00,141.00
             314.00,141.00 314.00,137.00 314.00,137.00
             314.00,137.00 282.00,138.00 282.00,138.00 Z
           M 324.00,138.00
           C 324.00,138.00 324.00,140.00 324.00,140.00
             329.73,141.63 350.27,141.63 356.00,140.00
             356.00,140.00 356.00,138.00 356.00,138.00
             350.27,136.37 329.73,136.37 324.00,138.00 Z
           M 812.24,141.96
           C 808.17,144.93 811.14,149.09 813.74,148.26
             815.86,147.58 817.62,142.22 812.24,141.96 Z
           M 828.30,142.17
           C 824.40,146.23 828.43,148.97 830.70,147.83
             832.92,146.73 833.75,141.59 828.30,142.17 Z
           M 846.09,142.34
           C 841.16,144.44 843.85,148.93 846.83,148.56
             849.50,148.23 851.03,144.11 846.09,142.34 Z
           M 199.00,148.10
           C 199.00,148.10 199.00,256.00 199.00,256.00
             199.02,267.21 201.71,272.85 214.00,273.00
             214.00,273.00 272.00,273.00 272.00,273.00
             272.00,273.00 514.00,273.00 514.00,273.00
             516.83,273.00 520.34,273.13 523.00,272.11
             533.79,267.96 531.00,252.42 531.00,243.00
             531.00,243.00 531.00,148.00 531.00,148.00
             531.00,148.00 616.00,148.00 616.00,148.00
             634.98,148.09 645.97,160.40 646.00,179.00
             646.00,179.00 646.00,271.00 646.00,271.00
             646.00,271.00 568.00,271.00 568.00,271.00
             565.01,271.00 561.89,270.90 559.00,271.80
             547.20,275.50 548.00,286.09 548.00,296.00
             548.00,296.00 548.00,311.00 548.00,311.00
             548.00,311.00 548.00,440.00 548.00,440.00
             548.00,440.00 165.00,440.00 165.00,440.00
             146.04,439.97 134.03,427.96 134.00,409.00
             134.00,409.00 134.00,351.00 134.00,351.00
             134.00,351.00 134.00,179.00 134.00,179.00
             134.01,174.84 133.95,172.07 135.22,168.00
             138.40,157.82 147.40,149.86 158.00,148.10
             158.00,148.10 175.00,148.10 175.00,148.10
             175.00,148.10 199.00,148.10 199.00,148.10 Z
           M 215.00,155.00
           C 216.19,156.18 216.38,156.72 218.11,157.41
             220.25,158.25 228.46,158.63 229.83,156.46
             231.66,153.58 226.54,153.08 225.00,153.02
             220.59,152.84 218.92,152.93 215.00,155.00 Z
           M 241.00,154.00
           C 241.43,155.23 241.38,156.05 242.59,156.98
             244.66,158.55 254.04,158.00 257.00,158.00
             257.00,158.00 306.00,158.00 306.00,158.00
             310.46,157.97 312.41,158.55 314.00,154.00
             314.00,154.00 241.00,154.00 241.00,154.00 Z
           M 324.00,154.00
           C 324.00,154.00 326.31,157.69 326.31,157.69
             326.31,157.69 349.00,157.69 349.00,157.69
             349.00,157.69 352.85,157.69 352.85,157.69
             352.85,157.69 356.00,154.00 356.00,154.00
             356.00,154.00 324.00,154.00 324.00,154.00 Z
           M 365.00,155.00
           C 365.00,155.00 365.00,156.99 365.00,156.99
             368.10,157.88 376.73,159.02 379.41,156.99
             380.62,156.05 380.57,155.23 381.00,154.00
             381.00,154.00 365.00,155.00 365.00,155.00 Z
           M 1128.00,161.00
           C 1128.00,161.00 1128.00,379.00 1128.00,379.00
             1127.99,384.88 1128.03,390.36 1121.96,393.43
             1117.46,395.71 1106.39,395.00 1101.00,395.00
             1101.00,395.00 1055.00,395.00 1055.00,395.00
             1055.00,395.00 815.00,395.00 815.00,395.00
             809.88,394.99 804.25,395.13 800.65,390.78
             797.78,387.30 798.01,383.21 798.00,379.00
             798.00,379.00 798.00,341.00 798.00,341.00
             798.00,341.00 798.00,161.00 798.00,161.00
             798.00,161.00 1128.00,161.00 1128.00,161.00 Z
           M 216.00,170.00
           C 216.00,170.00 216.00,174.00 216.00,174.00
             216.00,174.00 232.00,173.00 232.00,173.00
             232.00,173.00 232.00,171.00 232.00,171.00
             232.00,171.00 216.00,170.00 216.00,170.00 Z
           M 241.00,174.00
           C 241.00,174.00 273.00,173.00 273.00,173.00
             273.00,173.00 273.00,171.00 273.00,171.00
             266.98,169.29 256.58,169.99 250.00,170.00
             245.36,170.01 242.71,169.13 241.00,174.00 Z
           M 282.00,171.00
           C 282.00,171.00 282.00,173.00 282.00,173.00
             282.00,173.00 314.00,174.00 314.00,174.00
             312.55,169.86 311.15,170.08 307.00,170.00
             300.49,169.88 287.80,169.35 282.00,171.00 Z
           M 324.00,174.00
           C 324.00,174.00 356.00,174.00 356.00,174.00
             356.00,174.00 353.69,170.31 353.69,170.31
             353.69,170.31 331.00,170.31 331.00,170.31
             331.00,170.31 327.15,170.31 327.15,170.31
             327.15,170.31 324.00,174.00 324.00,174.00 Z
           M 365.00,171.00
           C 365.00,171.00 365.00,173.00 365.00,173.00
             365.00,173.00 397.00,174.00 397.00,174.00
             395.55,169.86 394.15,170.08 390.00,170.00
             383.49,169.88 370.80,169.35 365.00,171.00 Z
           M 977.56,178.04
           C 974.85,181.28 974.61,185.93 973.80,190.00
             973.80,190.00 968.88,214.00 968.88,214.00
             968.88,214.00 948.66,312.00 948.66,312.00
             948.66,312.00 942.85,341.00 942.85,341.00
             941.99,347.65 946.25,348.22 948.49,346.36
             950.63,344.59 951.27,339.66 951.80,337.00
             951.80,337.00 956.66,313.00 956.66,313.00
             956.66,313.00 976.80,215.00 976.80,215.00
             976.80,215.00 982.80,186.00 982.80,186.00
             983.66,181.52 984.19,175.87 977.56,178.04 Z
           M 216.00,187.00
           C 216.00,187.00 216.00,191.00 216.00,191.00
             216.00,191.00 232.00,190.00 232.00,190.00
             232.00,190.00 232.00,188.00 232.00,188.00
             232.00,188.00 216.00,187.00 216.00,187.00 Z
           M 241.00,187.00
           C 241.00,187.00 241.00,191.00 241.00,191.00
             241.00,191.00 273.00,190.00 273.00,190.00
             273.00,190.00 273.00,188.00 273.00,188.00
             273.00,188.00 241.00,187.00 241.00,187.00 Z
           M 282.00,188.00
           C 282.00,188.00 282.00,190.00 282.00,190.00
             282.00,190.00 303.00,191.00 303.00,191.00
             303.00,191.00 339.00,191.00 339.00,191.00
             339.00,191.00 339.00,187.00 339.00,187.00
             339.00,187.00 303.00,187.00 303.00,187.00
             303.00,187.00 282.00,188.00 282.00,188.00 Z
           M 349.00,188.00
           C 349.00,188.00 349.00,190.00 349.00,190.00
             354.73,191.63 375.27,191.63 381.00,190.00
             381.00,190.00 381.00,188.00 381.00,188.00
             375.27,186.37 354.73,186.37 349.00,188.00 Z
           M 919.00,194.88
           C 913.02,197.63 907.06,204.19 902.00,208.58
             902.00,208.58 865.00,241.42 865.00,241.42
             860.97,244.92 848.46,255.34 847.47,260.00
             846.13,266.35 855.72,273.71 860.00,277.42
             860.00,277.42 903.00,315.72 903.00,315.72
             903.00,315.72 915.00,326.22 915.00,326.22
             916.87,327.68 919.23,329.78 921.77,328.68
             926.47,326.65 923.22,321.71 920.89,319.42
             920.89,319.42 896.00,297.16 896.00,297.16
             896.00,297.16 869.00,273.08 869.00,273.08
             866.01,270.32 860.61,266.45 860.50,262.00
             860.38,257.11 869.45,249.50 873.00,246.42
             873.00,246.42 912.00,211.93 912.00,211.93
             914.71,209.47 922.79,202.96 923.83,200.00
             925.21,196.10 922.11,194.91 919.00,194.88 Z
           M 1004.15,195.17
           C 996.78,201.22 1010.45,209.76 1015.00,213.72
             1015.00,213.72 1052.00,246.84 1052.00,246.84
             1055.40,249.88 1064.09,256.70 1065.05,261.00
             1066.41,267.07 1055.04,275.31 1051.00,279.00
             1051.00,279.00 1015.00,311.00 1015.00,311.00
             1012.14,313.61 1002.82,321.01 1001.84,324.15
             1001.20,326.22 1002.10,328.45 1004.23,329.16
             1008.78,330.67 1019.56,319.20 1023.00,316.07
             1023.00,316.07 1063.00,280.42 1063.00,280.42
             1066.88,277.07 1077.23,268.74 1078.25,264.00
             1079.49,258.23 1072.82,252.88 1069.00,249.58
             1069.00,249.58 1037.00,221.02 1037.00,221.02
             1037.00,221.02 1015.00,201.42 1015.00,201.42
             1011.51,198.41 1008.92,194.73 1004.15,195.17 Z
           M 215.00,205.00
           C 216.19,206.18 216.38,206.72 218.11,207.41
             220.25,208.25 228.46,208.63 229.83,206.46
             231.66,203.58 226.54,203.08 225.00,203.02
             220.59,202.84 218.92,202.93 215.00,205.00 Z
           M 282.00,203.80
           C 282.00,203.80 282.00,206.00 282.00,206.00
             282.00,206.00 306.00,207.00 306.00,207.00
             305.44,205.39 305.47,204.46 303.69,203.80
             300.59,202.10 285.55,202.99 282.00,203.80 Z
           M 241.00,204.00
           C 242.45,208.14 243.85,207.92 248.00,208.00
             254.51,208.12 267.20,208.65 273.00,207.00
             273.00,207.00 273.00,205.00 273.00,205.00
             273.00,205.00 241.00,204.00 241.00,204.00 Z
           M 215.00,221.01
           C 215.00,221.01 215.00,223.00 215.00,223.00
             215.00,223.00 231.00,224.00 231.00,224.00
             230.57,222.77 230.62,221.95 229.41,221.01
             226.73,218.98 218.10,220.12 215.00,221.01 Z
           M 241.00,224.00
           C 241.00,224.00 289.00,224.00 289.00,224.00
             287.41,219.45 285.46,220.03 281.00,220.00
             281.00,220.00 248.00,220.00 248.00,220.00
             243.85,220.08 242.45,219.86 241.00,224.00 Z
           M 797.00,273.00
           C 797.00,273.00 797.00,299.00 797.00,299.00
             797.00,299.00 588.00,299.00 588.00,299.00
             585.45,299.00 582.42,298.88 580.00,299.70
             568.57,303.58 570.00,315.50 570.00,325.00
             570.00,325.00 570.00,351.00 570.00,351.00
             570.00,351.00 570.00,525.00 570.00,525.00
             570.01,531.11 570.49,537.27 576.10,541.11
             579.22,543.24 582.42,542.99 586.00,543.00
             586.00,543.00 616.00,543.00 616.00,543.00
             616.00,543.00 765.00,543.00 765.00,543.00
             765.00,543.00 1008.00,543.00 1008.00,543.00
             1010.43,543.00 1013.75,543.13 1016.00,542.26
             1027.04,537.99 1024.00,518.75 1024.00,509.00
             1024.00,509.00 1024.00,396.00 1024.00,396.00
             1024.00,396.00 1042.00,396.00 1042.00,396.00
             1042.00,396.00 1042.00,554.00 1042.00,554.00
             1042.00,556.44 1042.19,559.73 1040.98,561.89
             1037.95,567.29 1024.74,568.93 1019.00,569.00
             1019.00,569.00 934.00,569.00 934.00,569.00
             934.00,569.00 577.00,569.00 577.00,569.00
             571.21,568.99 557.58,568.59 553.57,564.44
             549.93,560.68 551.00,552.04 551.00,547.00
             551.00,547.00 551.00,503.00 551.00,503.00
             551.00,503.00 551.00,291.00 551.00,291.00
             551.01,284.42 551.66,278.23 558.09,274.57
             562.00,272.35 569.43,273.00 574.00,273.00
             574.00,273.00 608.00,273.00 608.00,273.00
             608.00,273.00 797.00,273.00 797.00,273.00 Z
           M 797.00,301.00
           C 797.00,301.00 797.00,379.00 797.00,379.00
             797.01,384.84 796.87,389.57 802.05,393.49
             805.71,396.25 809.68,395.99 814.00,396.00
             814.00,396.00 849.00,396.00 849.00,396.00
             849.00,396.00 1021.00,396.00 1021.00,396.00
             1021.00,396.00 1021.00,518.00 1021.00,518.00
             1020.98,532.18 1018.00,540.92 1002.00,541.00
             1002.00,541.00 922.00,541.00 922.00,541.00
             922.00,541.00 593.00,541.00 593.00,541.00
             589.54,540.99 586.27,541.15 583.00,539.77
             576.66,537.11 574.47,532.41 573.15,526.00
             573.15,526.00 573.15,491.00 573.15,491.00
             573.15,491.00 573.15,324.00 573.15,324.00
             573.01,318.11 573.27,310.82 577.39,306.19
             581.24,301.86 585.54,301.07 591.00,301.00
             591.00,301.00 626.00,301.00 626.00,301.00
             626.00,301.00 797.00,301.00 797.00,301.00 Z
           M 416.00,509.00
           C 416.00,509.00 422.00,574.00 422.00,574.00
             422.00,574.00 359.00,574.00 359.00,574.00
             359.00,574.00 360.83,553.00 360.83,553.00
             360.83,553.00 363.17,527.00 363.17,527.00
             363.17,527.00 365.00,509.00 365.00,509.00
             365.00,509.00 416.00,509.00 416.00,509.00 Z
           M 1081.00,592.00
           C 1081.00,592.00 1146.00,592.00 1146.00,592.00
             1144.30,585.08 1145.00,580.92 1139.79,575.04
             1127.17,560.83 1099.83,560.83 1087.21,575.04
             1082.00,580.92 1082.70,585.08 1081.00,592.00 Z
           M 1112.00,569.00
           C 1112.00,569.00 1115.00,569.00 1115.00,569.00
             1117.48,565.41 1120.07,566.42 1124.00,567.49
             1130.86,569.36 1136.71,573.53 1139.86,580.00
             1143.05,586.54 1143.30,590.84 1135.00,591.00
             1135.00,591.00 1107.00,591.00 1107.00,591.00
             1107.00,591.00 1085.00,590.00 1085.00,590.00
             1085.26,579.58 1090.28,572.35 1100.00,568.35
             1103.98,566.71 1109.23,564.99 1112.00,569.00 Z
           M 814.00,572.00
           C 813.97,574.57 814.17,577.58 812.40,579.69
             809.38,583.27 794.87,582.03 790.00,582.00
             787.44,581.98 784.40,582.16 782.31,580.40
             779.79,578.27 780.04,574.98 780.00,572.00
             780.00,572.00 814.00,572.00 814.00,572.00 Z
           M 779.00,573.00
           C 779.08,575.95 778.98,579.27 781.43,581.40
             784.00,583.63 790.63,583.00 794.00,583.00
             809.93,583.00 814.69,585.10 815.00,573.00
             815.00,573.00 1048.00,573.00 1048.00,573.00
             1053.56,573.01 1060.06,573.16 1061.53,580.00
             1064.29,592.93 1042.14,590.00 1035.00,590.00
             1035.00,590.00 942.00,590.00 942.00,590.00
             942.00,590.00 546.00,590.00 546.00,590.00
             540.50,589.99 534.31,589.91 533.24,582.99
             532.08,575.47 537.68,573.11 544.00,573.00
             544.00,573.00 590.00,573.00 590.00,573.00
             590.00,573.00 779.00,573.00 779.00,573.00 Z
           M 326.00,577.00
           C 326.00,577.00 324.00,579.00 324.00,579.00
             324.00,579.00 324.00,580.00 324.00,580.00
             324.00,580.00 326.00,577.00 326.00,577.00 Z
           M 454.00,577.00
           C 454.00,577.00 457.00,580.00 457.00,580.00
             457.00,580.00 454.00,577.00 454.00,577.00 Z
           M 323.00,581.00
           C 323.00,581.00 323.00,591.00 323.00,591.00
             323.00,591.00 458.00,591.00 458.00,591.00
             458.00,591.00 458.00,586.00 458.00,586.00
             458.00,586.00 452.96,589.42 452.96,589.42
             452.96,589.42 428.00,590.00 428.00,590.00
             428.00,590.00 353.00,590.00 353.00,590.00
             353.00,590.00 334.00,590.00 334.00,590.00
             334.00,590.00 325.74,588.40 325.74,588.40
             325.74,588.40 323.00,581.00 323.00,581.00 Z" />
</svg>
